<?xml version="1.0" encoding="utf-8"?>
<!-- Generator: Adobe Illustrator 19.0.0, SVG Export Plug-In . SVG Version: 6.00 Build 0)  -->
<svg version="1.1" id="Layer_01" xmlns="http://www.w3.org/2000/svg" xmlns:xlink="http://www.w3.org/1999/xlink" x="0px" y="0px"
	 width="141.7px" height="85px" viewBox="0 0 141.7 85" enable-background="new 0 0 141.7 85" xml:space="preserve">
<path fill="none" stroke="#FFFFFF" stroke-width="0.75" stroke-linecap="round" stroke-linejoin="round" d="M105.2,85
	C105.2,85,105.2,85,105.2,85c-6.7,0-13.4,0-20.1,0c-9.4,0-18.9,0-28.3,0c-9.4,0-18.9,0-28.3,0c-9.4,0-18.9,0-23.6-4.7
	C0,75.6,0,66.1,0,56.7c0-9.4,0-18.9,0-28.3C0,18.9,0,9.4,4.7,4.7C9.4,0,18.9,0,28.3,0c9.4,0,18.9,0,28.3,0C66.1,0,75.6,0,85,0
	s18.9,0,28.3,0c7.5,0,14.9,0,20.1,2.3c1.4,0.6,2.6,1.4,3.6,2.4c4.7,4.7,4.7,14.2,4.7,23.6c0,9.4,0,18.9,0,28.3
	c0,9.4,0,18.9-4.7,23.6c-4.7,4.7-14.2,4.7-23.6,4.7C110.6,85,107.9,85,105.2,85z"/>
</svg>
