<?xml version="1.0" encoding="utf-8"?>
<!-- Generator: Adobe Illustrator 19.0.0, SVG Export Plug-In . SVG Version: 6.00 Build 0)  -->
<svg version="1.1" id="Layer_01" xmlns="http://www.w3.org/2000/svg" xmlns:xlink="http://www.w3.org/1999/xlink" x="0px" y="0px"
	 width="177px" height="63.8px" viewBox="0 0 177 63.8" enable-background="new 0 0 177 63.8" xml:space="preserve">
<path fill="none" stroke="#FFFFFF" stroke-width="0.75" stroke-linecap="round" stroke-linejoin="round" d="M59.3,0
	C55.7,0,52,0,48.4,0.1c-3.6,0.1-7.1,0.2-10.7,0.4c-2.8,0.2-5.7,0.5-8.5,1C27.6,1.7,26,2,24.4,2.4c-3,0.7-6,1.7-8.8,3
	c-2.7,1.3-5.2,3-7.4,5c-1.2,1.2-2.3,2.5-3.3,4c-1,1.4-1.8,2.9-2.5,4.5c-1.4,3.2-2.2,6.6-2.5,10c-0.3,3.4-0.1,6.9,0.7,10.3
	c0.7,3.4,2,6.6,3.9,9.5c0.9,1.5,2,2.8,3.2,4.1c1.2,1.2,2.5,2.4,4,3.3c1.5,1,3,1.8,4.6,2.5c1.6,0.7,3.3,1.4,5.1,1.9
	c1.8,0.5,3.6,1,5.4,1.3c2.5,0.5,5,0.8,7.5,1.1c4.1,0.4,8.2,0.6,12.3,0.7c4.2,0.1,8.5,0.1,12.7,0.1c19.4,0,38.9,0,58.3,0
	c3,0,6.1,0,9.1,0c3,0,6-0.1,9-0.3c2.9-0.1,5.8-0.4,8.7-0.7c1.7-0.2,3.3-0.4,5-0.7c2.6-0.5,5.2-1.1,7.7-2c2.4-0.8,4.7-1.8,6.9-3.1
	c1.1-0.6,2.1-1.3,3-2.1c1-0.8,1.9-1.6,2.7-2.5c1.7-1.8,3-3.9,4.1-6.1c1.1-2.2,1.9-4.5,2.4-6.9c0.5-2.4,0.8-4.9,0.8-7.3
	c0-2.5-0.3-4.9-0.8-7.3c-0.5-2.4-1.3-4.7-2.4-6.9c-1.1-2.2-2.5-4.3-4.1-6.1c-1.7-1.8-3.6-3.4-5.8-4.7c-2.2-1.3-4.5-2.3-6.9-3.1
	c-2.5-0.9-5.1-1.5-7.7-2c-1.6-0.3-3.3-0.5-5-0.7c-2.9-0.3-5.8-0.6-8.7-0.7C129.7,0,123.6,0,117.6,0c-9.4,0-18.8,0-28.2,0
	c-9.8,0-19.5,0-29.3,0C59.8,0,59.6,0,59.3,0z"/>
</svg>
