<?xml version="1.0" encoding="utf-8"?>
<!-- Generator: Adobe Illustrator 19.0.0, SVG Export Plug-In . SVG Version: 6.00 Build 0)  -->
<svg version="1.1" id="Layer_01" xmlns="http://www.w3.org/2000/svg" xmlns:xlink="http://www.w3.org/1999/xlink" x="0px" y="0px"
	 width="120.5px" height="233.9px" viewBox="0 0 120.5 233.9" enable-background="new 0 0 120.5 233.9" xml:space="preserve">
<path fill="none" stroke="#FFFFFF" stroke-width="0.75" stroke-linecap="round" stroke-linejoin="round" d="M0,178.3
	c0,6.2,0,12.4,0,18.5c0,2.4,0.1,4.8,0.1,7.1c0.1,2,0.1,4,0.2,5.9c0.1,2.1,0.3,4.1,0.5,6.2c0.2,1.3,0.4,2.6,0.7,3.9
	c0.3,1.4,0.8,2.8,1.4,4.1c0.4,0.9,1,1.8,1.6,2.7c0.9,1.1,1.9,2.1,3.1,2.9c0.8,0.6,1.7,1,2.6,1.4c0.9,0.4,1.9,0.7,2.8,1
	c2.4,0.7,4.8,1,7.3,1.3c2.5,0.2,5,0.3,7.5,0.4c2.9,0.1,5.8,0,8.7,0c15.7,0,31.5,0,47.2,0c2.9,0,5.8,0,8.7,0c2.5,0,5-0.1,7.5-0.4
	c2.5-0.2,4.9-0.6,7.3-1.3c1-0.3,1.9-0.6,2.8-1c0.9-0.4,1.8-0.9,2.6-1.4c1.2-0.8,2.2-1.8,3.1-2.9c0.6-0.8,1.2-1.7,1.6-2.7
	c0.6-1.3,1.1-2.7,1.4-4.1c0.3-1.3,0.5-2.6,0.7-3.9c0.3-2,0.4-4.1,0.5-6.2c0.2-4.4,0.3-8.7,0.4-13.1c0.1-6.2,0-12.4,0-18.5
	c0-40.9,0-81.9,0-122.8c0-6.2,0-12.4,0-18.5c0-2.4-0.1-4.8-0.1-7.1c-0.1-2-0.1-4-0.2-5.9c-0.1-2.1-0.3-4.1-0.5-6.2
	c-0.2-1.3-0.4-2.6-0.7-3.9c-0.3-1.4-0.8-2.8-1.4-4.1c-0.4-0.9-1-1.8-1.6-2.7c-0.9-1.1-1.9-2.1-3.1-2.9c-0.8-0.6-1.7-1-2.6-1.4
	c-0.9-0.4-1.9-0.7-2.8-1c-2.4-0.7-4.8-1-7.3-1.3c-2.5-0.2-5-0.3-7.5-0.4c-2.9-0.1-5.8,0-8.7,0C68.1,0,52.4,0,36.6,0
	c-2.9,0-5.8,0-8.7,0c-2.5,0-5,0.1-7.5,0.4c-2.5,0.2-4.9,0.6-7.3,1.3c-1,0.3-1.9,0.6-2.8,1C9.4,3.1,8.5,3.6,7.7,4.1
	C6.5,5,5.5,5.9,4.6,7.1C4,7.9,3.5,8.8,3,9.7C2.4,11,2,12.4,1.6,13.8c-0.3,1.3-0.5,2.6-0.7,3.9c-0.3,2-0.4,4.1-0.5,6.2
	C0.2,28.2,0.1,32.6,0,37C0,43.2,0,49.3,0,55.5c0,10.7,0,21.4,0,32.1c0,19.5,0,39.1,0,58.6C0,156.9,0,167.6,0,178.3z"/>
</svg>
