<?xml version="1.0" encoding="utf-8"?>
<!-- Generator: Adobe Illustrator 19.0.0, SVG Export Plug-In . SVG Version: 6.00 Build 0)  -->
<svg version="1.1" id="Layer_01" xmlns="http://www.w3.org/2000/svg" xmlns:xlink="http://www.w3.org/1999/xlink" x="0px" y="0px"
	 width="113.4px" height="113.4px" viewBox="0 0 113.4 113.4" enable-background="new 0 0 113.4 113.4" xml:space="preserve">
<path fill="none" stroke="#FFFFFF" stroke-width="0.75" stroke-linecap="round" stroke-linejoin="round" d="M113.4,28.4
	C113.4,12.7,100.7,0,85.1,0C66.2,0,47.3,0,28.4,0C12.7,0,0,12.7,0,28.4c0,18.9,0,37.8,0,56.7c0,15.7,12.7,28.4,28.4,28.4
	c18.9,0,37.8,0,56.7,0c15.7,0,28.4-12.7,28.4-28.4c0-4.4,0-8.7,0-13.1c0-9.8,0-19.5,0-29.3C113.4,37.9,113.4,33.1,113.4,28.4z"/>
</svg>
