<?xml version="1.0" encoding="utf-8"?>
<!-- Generator: Adobe Illustrator 19.0.0, SVG Export Plug-In . SVG Version: 6.00 Build 0)  -->
<svg version="1.1" id="Layer_01" xmlns="http://www.w3.org/2000/svg" xmlns:xlink="http://www.w3.org/1999/xlink" x="0px" y="0px"
	 width="85.1px" height="84.5px" viewBox="0 0 85.1 84.5" enable-background="new 0 0 85.1 84.5" xml:space="preserve">
<path fill="none" stroke="#FFFFFF" stroke-width="0.75" stroke-linecap="round" stroke-linejoin="round" d="M0,42
	c0,4.7,0,9.4,0,14.1C0,65.6,0,75,4.7,79.8c4.7,4.7,14.2,4.7,23.6,4.7c9.4,0,18.9,0,28.3,0c7.8,0,15.5,0,20.7-2.6
	c1.1-0.6,2.1-1.3,3-2.1c4.7-4.7,4.7-14.2,4.7-23.6c0-4.7,0-9.4,0-14.1c0-4.7,0-9.4,0-14.1c0-9.5,0-18.9-4.7-23.6
	c-0.8-0.8-1.8-1.5-3-2.1c-5.1-2.6-12.9-2.6-20.7-2.6c-9.4,0-18.9,0-28.3,0c-9.4,0-18.9,0-23.6,4.7C0,9.1,0,18.5,0,28
	C0,32.7,0,37.3,0,42z"/>
</svg>
