<?xml version="1.0" encoding="utf-8"?>
<!-- Generator: Adobe Illustrator 19.0.0, SVG Export Plug-In . SVG Version: 6.00 Build 0)  -->
<svg version="1.1" id="Dashed" xmlns="http://www.w3.org/2000/svg" xmlns:xlink="http://www.w3.org/1999/xlink" x="0px" y="0px"
	 width="167.8px" height="167.8px" viewBox="0 0 167.8 167.8" enable-background="new 0 0 167.8 167.8" xml:space="preserve">
<path fill="none" stroke="#FFFFFF" stroke-width="0.75" stroke-linecap="round" stroke-linejoin="round" d="M85.1,58.1
	c-7.8,1.2-14.4,3.6-18.9,8.1c-9.5,9.5-9.5,28.4-9.5,47.3c0,18.9,0,37.8-9.5,47.3c-9.5,9.5-28.4,9.5-37.8,0C0,151.2,0,132.3,0,104
	c0-28.4,0-66.2,18.9-85.1C33.8,4,60.5,0.8,85.1,0.2C91.6,0,98,0,104,0c28.4,0,47.3,0,56.7,9.5c9.5,9.5,9.5,28.4,0,37.8
	c-4.2,4.2-10.3,6.6-17.5,7.9c-1.1,0.2-2.1,0.4-3.2,0.5c-8.1,1.1-17.3,1.1-26.5,1.1C103.5,56.7,93.6,56.7,85.1,58.1z"/>
</svg>
